<?xml version="1.0" encoding="iso-8859-1"?>
<!-- Uploaded to: SVG Repo, www.svgrepo.com, Generator: SVG Repo Mixer Tools -->
<svg version="1.1" id="Layer_1" xmlns="http://www.w3.org/2000/svg" xmlns:xlink="http://www.w3.org/1999/xlink" 
	 viewBox="0 0 491.52 491.52" xml:space="preserve">
<path style="fill:#FCD462;" d="M358.2,0H69.641C36.457,0,9.556,26.901,9.556,60.084v372.038
	c0.946-31.538,28.461-55.852,60.012-55.852h297.248c4.346,0,7.869,3.523,7.869,7.869V16.484C374.686,7.38,367.304,0,358.2,0z"/>
<rect x="69.642" style="fill:#F6C358;" width="9.871" height="385.843"/>
<path style="fill:#DC8744;" d="M67.157,475.778c-24.475,0-44.116-21.105-41.679-46.071c2.124-21.759,21.685-37.699,43.547-37.699
	h297.792c4.346,0,7.869-3.523,7.869-7.869l0,0c0-4.346-3.523-7.869-7.869-7.869H69.568c-31.552,0-59.066,24.314-60.012,55.853
	C8.577,464.758,34.74,491.52,67.153,491.52h299.664c4.346,0,7.869-3.523,7.869-7.869v-0.005c0-4.345-3.523-7.868-7.869-7.868H67.157
	z"/>
<path style="fill:#EBF0F3;" d="M25.478,429.707c-2.438,24.965,17.203,46.072,41.679,46.072h298.167
	c-12.996-27.924-12.996-55.846,0-83.77H69.025C47.161,392.009,27.601,407.949,25.478,429.707z"/>
<g>
	<path style="fill:#E1E6E9;" d="M51.189,411.117h307.357c0.28-1.107,0.644-2.213,0.966-3.319H51.189V411.117z"/>
	<path style="fill:#E1E6E9;" d="M51.189,423.332h305.011c0.131-1.107,0.41-2.214,0.581-3.32H51.189V423.332z"/>
	<path style="fill:#E1E6E9;" d="M51.189,435.553h304.484c-0.022-1.107-0.022-2.213,0-3.32H51.189V435.553z"/>
	<path style="fill:#E1E6E9;" d="M51.189,447.775h305.592c-0.17-1.107-0.449-2.213-0.581-3.319H51.189V447.775z"/>
	<path style="fill:#E1E6E9;" d="M51.189,459.991h308.324c-0.322-1.107-0.687-2.215-0.966-3.32H51.189V459.991z"/>
</g>
<g>
	<ellipse style="opacity:0.5;fill:#FFFFFF;enable-background:new    ;" cx="277.711" cy="158.504" rx="79.611" ry="79.611"/>
	<path style="opacity:0.5;fill:#FFFFFF;enable-background:new    ;" d="M240.63,205.183c-26.573-26.572-26.919-69.307-0.776-95.451
		c5.834-5.835,12.521-10.274,19.643-13.472c-10.12,2.951-19.664,8.406-27.643,16.385c-25.329,25.329-25.33,66.397-0.002,91.726
		c11.216,11.215,25.518,17.441,40.172,18.725C260.555,220.132,249.654,214.207,240.63,205.183z"/>
</g>
<path style="fill:#3A556A;" d="M346.486,89.739c-37.98-37.981-99.559-37.981-137.539,0.001c-37.98,37.98-37.981,99.558-0.001,137.54
	c35.001,35.001,89.997,37.662,128.143,8.155l8.7,8.699l17.553-17.553l-8.7-8.7C384.149,179.736,381.487,124.739,346.486,89.739z
	 M334.012,214.804c-31.091,31.091-81.499,31.091-112.59,0c-31.091-31.091-31.091-81.499,0-112.59
	c31.091-31.091,81.499-31.091,112.59,0S365.102,183.713,334.012,214.804z"/>
<path style="fill:#27A2DB;" d="M368.072,220.057l-28.808,28.807c-1.637,1.637-1.637,4.292,0,5.929l106.95,106.95
	c7.443,7.443,42.18-27.292,34.737-34.736l-106.951-106.95C372.364,218.42,369.71,218.42,368.072,220.057z"/>
<g>
	
		<rect x="431.613" y="332.811" transform="matrix(-0.7071 0.7071 -0.7071 -0.7071 1017.0231 252.701)" style="fill:#EBF0F3;" width="49.126" height="8.34"/>
	
		<rect x="340.39" y="241.52" transform="matrix(-0.7071 0.7071 -0.7071 -0.7071 796.7427 161.3586)" style="fill:#EBF0F3;" width="49.127" height="8.341"/>
</g>
</svg>