<?xml version="1.0" encoding="iso-8859-1"?>
<!-- Uploaded to: SVG Repo, www.svgrepo.com, Generator: SVG Repo Mixer Tools -->
<svg version="1.1" id="Layer_1" xmlns="http://www.w3.org/2000/svg" xmlns:xlink="http://www.w3.org/1999/xlink" 
	 viewBox="0 0 512 512" xml:space="preserve">
<circle style="fill:#FF314F;" cx="256" cy="256" r="256"/>
<path style="fill:#A30F44;" d="M365.666,247.865l-80.36-80.358L99.556,369.778l141.796,141.795C246.201,511.847,251.083,512,256,512
	c141.384,0,256-114.616,256-256c0-4.918-0.153-9.799-0.426-14.648l-99.13-99.13L365.666,247.865z"/>
<rect x="99.556" y="142.222" style="fill:#FFEDB5;" width="312.889" height="227.556"/>
<rect x="255.431" y="142.222" style="fill:#FEE187;" width="157.013" height="227.556"/>
<rect x="99.556" y="142.222" style="fill:#FFC61B;" width="312.889" height="31.03"/>
<rect x="255.431" y="142.222" style="fill:#EAA22F;" width="157.013" height="31.03"/>
<rect x="113.778" y="199.111" style="fill:#02B2B2;" width="113.778" height="113.778"/>
<rect x="128" y="213.333" style="fill:#FFFFFF;" width="85.333" height="85.333"/>
<polygon style="fill:#FF5419;" points="128,298.667 147.251,267.636 161.258,283.152 192.288,252.552 213.333,298.667 "/>
<circle style="fill:#FFC61B;" cx="159.961" cy="243.071" r="13.36"/>
<g>
	<rect x="275.825" y="188.768" style="fill:#FF5419;" width="24.997" height="24.997"/>
	<rect x="308.286" y="188.768" style="fill:#FF5419;" width="24.997" height="24.997"/>
	<rect x="340.764" y="188.768" style="fill:#FF5419;" width="24.997" height="24.997"/>
	<rect x="373.226" y="188.768" style="fill:#FF5419;" width="24.997" height="24.997"/>
	<rect x="275.825" y="223.246" style="fill:#FF5419;" width="24.997" height="24.997"/>
	<rect x="308.286" y="223.246" style="fill:#FF5419;" width="24.997" height="24.997"/>
	<rect x="340.764" y="223.246" style="fill:#FF5419;" width="24.997" height="24.997"/>
	<rect x="373.226" y="223.246" style="fill:#FF5419;" width="24.997" height="24.997"/>
	<rect x="275.825" y="256.862" style="fill:#FF5419;" width="24.997" height="24.997"/>
	<rect x="308.286" y="256.862" style="fill:#FF5419;" width="24.997" height="24.997"/>
	<rect x="340.764" y="256.862" style="fill:#FF5419;" width="24.997" height="24.997"/>
	<rect x="373.226" y="256.862" style="fill:#FF5419;" width="24.997" height="24.997"/>
	<rect x="275.825" y="291.34" style="fill:#FF5419;" width="24.997" height="24.997"/>
	<rect x="244.484" y="188.768" style="fill:#FF5419;" width="24.997" height="24.997"/>
	<rect x="244.484" y="223.246" style="fill:#FF5419;" width="24.997" height="24.997"/>
	<rect x="244.484" y="256.862" style="fill:#FF5419;" width="24.997" height="24.997"/>
	<rect x="244.484" y="291.34" style="fill:#FF5419;" width="24.997" height="24.997"/>
	<rect x="308.286" y="291.34" style="fill:#FF5419;" width="24.997" height="24.997"/>
	<rect x="340.764" y="291.34" style="fill:#FF5419;" width="24.997" height="24.997"/>
	<rect x="373.226" y="291.34" style="fill:#FF5419;" width="24.997" height="24.997"/>
	<rect x="275.825" y="325.439" style="fill:#FF5419;" width="24.997" height="24.997"/>
	<rect x="244.484" y="325.439" style="fill:#FF5419;" width="24.997" height="24.997"/>
	<rect x="308.286" y="325.439" style="fill:#FF5419;" width="24.997" height="24.997"/>
	<rect x="340.764" y="325.439" style="fill:#FF5419;" width="24.997" height="24.997"/>
	<rect x="373.226" y="325.439" style="fill:#FF5419;" width="24.997" height="24.997"/>
</g>
</svg>