<?xml version="1.0" encoding="iso-8859-1"?>
<!-- Uploaded to: SVG Repo, www.svgrepo.com, Generator: SVG Repo Mixer Tools -->
<svg height="800px" width="800px" version="1.1" id="Layer_1" xmlns="http://www.w3.org/2000/svg" xmlns:xlink="http://www.w3.org/1999/xlink" 
	 viewBox="0 0 512 512" xml:space="preserve">
<circle style="fill:#FF8D46;" cx="256" cy="256" r="148.536"/>
<path style="fill:#FE623F;" d="M256,512c-4.661,0-8.44-3.778-8.44-8.44v-65.266c0-4.662,3.779-8.44,8.44-8.44s8.44,3.778,8.44,8.44
	v65.266C264.44,508.222,260.661,512,256,512z"/>
<path style="fill:#FC3737;" d="M401.519,464.72c-2.61,0-5.183-1.206-6.835-3.48l-38.363-52.801
	c-2.74-3.771-1.904-9.048,1.867-11.788c3.772-2.741,9.049-1.904,11.788,1.867l38.363,52.801c2.74,3.771,1.904,9.048-1.867,11.788
	C404.975,464.197,403.24,464.72,401.519,464.72z"/>
<path style="fill:#FE623F;" d="M491.446,340.941c-0.864,0-1.743-0.134-2.609-0.415l-62.071-20.168
	c-4.432-1.44-6.86-6.201-5.418-10.634c1.44-4.434,6.201-6.859,10.634-5.418l62.071,20.168c4.432,1.44,6.86,6.201,5.418,10.634
	C498.311,338.675,495.003,340.941,491.446,340.941z"/>
<path style="fill:#FC3737;" d="M429.371,208.109c-3.558,0-6.866-2.267-8.024-5.835c-1.44-4.432,0.986-9.193,5.418-10.634
	l62.071-20.168c4.429-1.441,9.194,0.986,10.634,5.418c1.44,4.432-0.986,9.193-5.418,10.634l-62.071,20.168
	C431.114,207.976,430.235,208.109,429.371,208.109z"/>
<path style="fill:#FE623F;" d="M363.143,116.961c-1.719,0-3.456-0.524-4.953-1.614c-3.771-2.74-4.607-8.018-1.867-11.788
	l38.363-52.801c2.739-3.771,8.016-4.61,11.788-1.867c3.771,2.74,4.607,8.018,1.867,11.788l-38.363,52.801
	C368.326,115.754,365.753,116.961,363.143,116.961z"/>
<path style="fill:#FC3737;" d="M256,82.145c-4.661,0-8.44-3.778-8.44-8.44V8.44c0-4.662,3.779-8.44,8.44-8.44s8.44,3.778,8.44,8.44
	v65.266C264.44,78.368,260.661,82.145,256,82.145z"/>
<path style="fill:#FE623F;" d="M148.857,116.961c-2.61,0-5.183-1.206-6.835-3.48l-38.362-52.8c-2.74-3.771-1.904-9.048,1.867-11.788
	c3.772-2.741,9.049-1.904,11.788,1.867l38.363,52.801c2.74,3.771,1.904,9.048-1.867,11.788
	C152.313,116.438,150.576,116.961,148.857,116.961z"/>
<path style="fill:#FC3737;" d="M82.629,208.109c-0.864,0-1.743-0.134-2.61-0.415l-62.071-20.168
	c-4.432-1.44-6.86-6.201-5.418-10.634c1.44-4.434,6.203-6.855,10.634-5.418l62.071,20.168c4.432,1.44,6.86,6.201,5.418,10.634
	C89.495,205.843,86.186,208.109,82.629,208.109z"/>
<path style="fill:#FE623F;" d="M20.554,340.941c-3.558,0-6.866-2.267-8.024-5.835c-1.44-4.432,0.986-9.194,5.418-10.634
	l62.071-20.168c4.43-1.44,9.193,0.985,10.634,5.418c1.44,4.432-0.986,9.194-5.418,10.634l-62.071,20.168
	C22.297,340.807,21.418,340.941,20.554,340.941z"/>
<path style="fill:#FC3737;" d="M110.481,464.72c-1.719,0-3.456-0.524-4.953-1.614c-3.771-2.74-4.607-8.018-1.867-11.788
	l38.363-52.801c2.739-3.771,8.018-4.609,11.788-1.867c3.771,2.74,4.607,8.018,1.867,11.788l-38.363,52.801
	C115.664,463.513,113.09,464.72,110.481,464.72z"/>
</svg>