<?xml version="1.0" encoding="iso-8859-1"?>
<!-- Uploaded to: SVG Repo, www.svgrepo.com, Generator: SVG Repo Mixer Tools -->
<svg height="800px" width="800px" version="1.1" id="Layer_1" xmlns="http://www.w3.org/2000/svg" xmlns:xlink="http://www.w3.org/1999/xlink" 
	 viewBox="0 0 512 512" xml:space="preserve">
<path style="fill:#5D9BEB;" d="M512,256.006C512,397.402,397.394,512.004,256.004,512C114.606,512.004,0,397.402,0,256.006
	C-0.007,114.61,114.606,0,256.004,0C397.394,0,512,114.614,512,256.006z"/>
<path style="fill:#4988DB;" d="M511.327,273.653c-0.244-0.26-0.493-0.51-0.746-0.762c-0.255-0.255-70.268-70.27-70.53-70.515
	c-0.246-0.262-0.498-0.513-0.753-0.768c-0.253-0.254-0.503-0.503-0.765-0.749c-0.402-0.429-126.63-126.59-127.149-127.086
	c-5.863-6.41-14.156-10.403-23.557-10.403h-63.653c-18.157,0-32.383,14.708-32.383,33.488v94.931H96.86
	c-18.78,0-33.488,14.226-33.488,32.383v63.657c0,9.399,3.994,17.691,10.403,23.555c0.496,0.518,125.346,125.391,125.875,125.875
	c0.409,0.427,0.785,0.875,1.217,1.279c0.242,0.258,0.49,0.503,0.739,0.754c0.257,0.258,0.511,0.513,0.778,0.763
	c0.241,0.256,70.25,70.265,70.498,70.513c0.256,0.256,0.509,0.511,0.773,0.759C400.963,502.653,502.651,400.966,511.327,273.653z"/>
<path style="fill:#F4F6F9;" d="M415.14,191.791h-94.931V96.86c0-18.78-14.226-33.488-32.383-33.488h-63.653
	c-18.157,0-32.383,14.708-32.383,33.488v94.931H96.86c-18.78,0-33.488,14.226-33.488,32.383v63.657
	c0,18.153,14.708,32.379,33.488,32.379h94.931v94.927c0,18.78,14.226,33.492,32.383,33.492h63.653
	c18.157,0,32.383-14.713,32.383-33.492V320.21h94.931c18.78,0,33.488-14.226,33.488-32.379v-63.657
	C448.629,206.017,433.921,191.791,415.14,191.791z M432.576,287.83c0,9.312-7.498,16.326-17.436,16.326H312.183
	c-4.432,0-8.027,3.589-8.027,8.027v102.954c0,9.939-7.019,17.44-16.331,17.44h-63.653c-9.312,0-16.331-7.501-16.331-17.44V312.183
	c0-4.436-3.594-8.027-8.027-8.027H96.86c-9.939,0-17.436-7.015-17.436-16.326v-63.657c0-9.312,7.498-16.331,17.436-16.331h102.957
	c4.432,0,8.027-3.594,8.027-8.027V96.86c0-9.939,7.019-17.436,16.331-17.436h63.653c9.312,0,16.331,7.498,16.331,17.436v102.957
	c0,4.432,3.594,8.027,8.027,8.027h102.957c9.939,0,17.436,7.019,17.436,16.331v63.657h-0.003V287.83z"/>
</svg>